<svg width="100%" viewBox="0 0 200 200">
    <path
      fill="#673ab7"
      d="M134.56117,34.52474l65.00422,135.49211c0.67403,1.80961 0.56008,3.81886 -0.31417,5.54078c-1.06674,1.96612 -3.00944,3.30333 -5.22661,3.59865l-129.38011,17.13644c-0.30389,0.02913 -0.61006,0.02913 -0.91394,0h-2.79895l-0.48553,-0.22849h-0.17136l-57.12146,-32.8734c-0.08026,-0.0734 -0.16622,-0.14023 -0.25705,-0.19993c-0.21306,-0.12367 -0.41384,-0.26704 -0.59978,-0.42841l-0.48553,-0.42841l-0.48553,-0.51409l-0.25705,-0.48553l-0.34273,-0.57121c-0.11596,-0.19393 -0.22077,-0.39414 -0.31417,-0.59978c-0.08568,-0.19993 -0.22849,-0.42841 -0.22849,-0.62834c-0.07026,-0.20564 -0.12767,-0.41556 -0.17136,-0.62834c-0.01371,-0.2282 -0.01371,-0.45726 0,-0.68546c-0.01542,-0.21878 -0.01542,-0.43812 0,-0.6569c-0.01428,-0.21878 -0.01428,-0.43812 0,-0.6569c-0.01428,-0.2282 -0.01428,-0.45726 0,-0.68546c0.03399,-0.22163 0.08168,-0.44098 0.1428,-0.6569c0.08568,-0.22849 0.22849,-0.57121 0.22849,-0.68546v-0.31417l64.46157,-146.77359c0.08768,-0.18108 0.19278,-0.3533 0.31417,-0.51409c0.1131,-0.21563 0.23705,-0.42527 0.37129,-0.62834l0.42841,-0.48553l0.48553,-0.54265l0.51409,-0.37129c0.17793,-0.15851 0.369,-0.30189 0.57121,-0.42841l0.54265,-0.28561l0.6569,-0.28561c0.19593,-0.07026 0.39642,-0.12738 0.59978,-0.17136l0.68546,-0.17136c0.20849,-0.0297 0.41984,-0.0297 0.62834,0h2.08493l0.6569,0.28561l0.57121,0.19993h0.17136l57.12146,27.04701l0.28561,0.17136l0.6569,0.39985l0.39985,0.28561c0.30274,0.22677 0.58035,0.48525 0.82826,0.77114l0.19993,0.22849l0.54265,0.74258l0.19993,0.37129zM106.14324,72.05354l13.10938,-31.04551l-37.04327,-17.50773zM101.83057,82.24972l-28.84634,-58.5495l-56.26464,128.12344l58.52094,-6.74033zM100.83095,142.28439l29.0177,-3.28448l-14.65165,-29.50323l4.05562,-10.71027l20.07819,40.64192l40.47056,21.64903l-51.12371,-106.56009l-53.66561,127.09525l100.53377,-13.28074l-40.21351,-21.53479l-38.10001,4.31267zM24.54523,159.3637l35.95796,20.70653l10.99588,-26.04739z"
      fill-rule="evenodd"></path>
  </svg>